<?xml version="1.0" standalone="no"?>
<!DOCTYPE svg PUBLIC "-//W3C//DTD SVG 20010904//EN"
 "http://www.w3.org/TR/2001/REC-SVG-20010904/DTD/svg10.dtd">
<svg version="1.0" xmlns="http://www.w3.org/2000/svg"
 width="294.000000pt" height="296.000000pt" viewBox="0 0 294.000000 296.000000"
 preserveAspectRatio="xMidYMid meet">

<g transform="translate(0.000000,296.000000) scale(0.100000,-0.100000)"
fill="#000000" stroke="none">
<path d="M1240 2936 c-303 -55 -564 -185 -774 -386 -244 -234 -390 -513 -443
-844 -21 -137 -13 -404 16 -531 68 -293 192 -517 400 -725 278 -277 590 -413
981 -427 189 -7 333 12 495 64 554 178 940 641 1016 1218 15 112 6 361 -16
465 -42 198 -131 405 -241 562 -76 107 -247 279 -351 351 -166 115 -358 199
-553 242 -102 23 -427 29 -530 11z m386 -521 c114 -29 239 -121 310 -225 58
-84 87 -174 92 -285 9 -209 -80 -384 -254 -496 -45 -29 -63 -47 -60 -58 27
-91 146 -611 146 -638 0 -24 -8 -41 -26 -58 l-27 -25 -329 0 c-217 0 -336 4
-350 11 -11 6 -26 25 -33 44 -13 30 -9 53 61 346 41 173 76 319 79 326 2 6
-23 27 -55 47 -112 69 -205 193 -244 325 -25 83 -21 239 7 322 60 176 206 318
376 365 65 17 238 17 307 -1z"/>
</g>
</svg>
